<?xml version='1.0' encoding='utf-8'?>
<svg xmlns="http://www.w3.org/2000/svg" width="872px" height="622px" version="1.1" viewBox="100 749 872 622"> <g fill="#71cfeb" fill-opacity=".97255"> <path d="m99.999 748.46c-0.14287 0-0.27989 0.0568-0.38091 0.1578s-0.15778 0.23804-0.15778 0.3809l1e-3 622c0 0.2975 0.24118 0.5387 0.53869 0.5387l872 1e-3c0.14286 0 0.2799-0.0568 0.3809-0.1579 0.101-0.101 0.1578-0.238 0.1578-0.3808l-1e-3 -622c0-0.2975-0.2412-0.5387-0.5387-0.5387l-872-1e-3z"/> </g> <g> <g fill="#504f4a"> <path d="m618.39 1274.5-59.827 6.6179-11.145 7.9231-0.81564 18.792 4.141 0.7234-1.0323 47.467 52.943 12.023 50.309-16.357-8.109-68.367-26.448-8.8169"/> </g> <g fill="#f51"> <path d="m618.73 1269.9-0.0057 10.315 3.6183 1.56 1.6738-9.2822-5.2824-2.5908"/> <path d="m683.69 887.11q-2.9527 1.0634-7.2623 5.1016-8.6891 2.1835-12.049 5.4216-4.1002 3.3366-8.2474 15.67-3.2327 0.3514-4.5633 2.5938-2.1504 3.4845-2.6985 11.178-0.34075 6.7056 1.4696 10.126 1.8107 3.2914 6.0228 4.3515 1.1294 0.29983 2.9045 0.476l62.332 13.753q10.518-6.7715 10.351-13.624 0.0951-2.4105-0.53675-5.5881-0.0936-1.1005-2.9463-11.242l-1.2923-7.5274q-0.75626-3.1684-3.5952-8.3516-6.8386-12.043-12.114-14.844-2.6773-1.6495-7.6291-1.9551-4.4455-4.1004-9.9039-5.5128-6.2856-1.6083-10.195-0.04344"/> </g> <g fill="#ffc596"> <path d="m626.76 1118.6q-5.2364-0.1382-12.83 30.594-1.8023 7.7469-2.6859 14.801-0.25516 0.2153-2.3617 26.782-0.62042 6.6001-1.3642 13.099-1.9895 17.382-4.282 30.166-1.8715 10.47-3.9391 16.505-0.90644 2.686-1.9618 4.9851-0.802 1.8999-3.5933 6.5418-0.4704 0.9326-0.49957 1.6821 0.28063 6.5105 19.237 15.402l8.4293-1.6658q7.4662-7.2026 7.8804-10.472 0.58417-2.4487-1.4414-5.2639-1.8858-2.5623-6.1118-4.3777-0.66164-0.542-0.844-1.3181-0.2701-0.7183-0.0543-2.9661-0.1303 0.1358 1.674-10.268 0.36701-2.6084 0.32537-4.2061 0.05275-3.5115-2.2155-7.2334 18.94-65.104 19.826-80.73 0.9235-10.011-1.5164-15.7-0.60475-1.4973-1.625-3.2173l-6.3802-10.314q-1.9276-2.7944-3.6642-2.8259"/> </g> <g fill="#fff"> <path d="m773.2 1020.2q7.5e-4 0 0.00165 0l-0.00165 9.5e-4q6.5e-4 -9.5e-4 0.0014-9.5e-4l-0.00372 9.5e-4q0.00104-9.5e-4 0.00232-9.5e-4zm-5.6874 60.104q-0.02623 0-0.0525 0-0.0262 0-0.05247-3e-4zm-47.024-86.509q-44.463 9.5879-58.001 14.6-18.099 6.2103-26.339 14.759l-0.0324 0.0351q-7.3965 7.6333-8.7927 25.977-2.2033 33.951 1.1037 55.524l64.488 55.1 1.0066 22.549q0.10204 0.7835 0.74384 1.2017l1.0187 0.2422 53.21-7.8233q0.1376-0.187 0.216-0.1887l0.00356 0.0012q0.22449 0.0052-0.05006 1.5757l3.0692 0.4527q7.2861-48.384 7.4448-52.791 1.1226-9.4699 2.1543-41.527 2.3913 0.0767 4.5874 0.0818 9.3531 0.0202 15.165-1.2632 6.32-1.1961 18.345-5.1558 2.645-0.6472 2.5561-1.6191 0.08244-0.9256-0.10333-1.0891-11.587-26.176-17.446-38.816-6.6311-14.447-8.9258-17.064-3.594-5.2691-13.012-9.2323-13.147-5.7937-42.411-15.531z"/> </g> <g fill="#171f5c"> <path d="m633.19 1080.8 3.2035 0.2344 3.2034 0.2353-6.4069-0.4697v1e-3 -1e-3"/> <path d="m672.89 1083.7 1.9237 0.1409 1.9237 0.1416q-1.9237-0.1414-3.8474-0.2825"/> <path d="m672.65 1086.8 0.12783 9e-3 0.12781 0.0091v9e-4q-0.12781-0.0095-0.25564-0.019"/> <path d="m732.3 994.04-0.07796 0.0015q-20.196 5.43-34.5 27.68-23.956 36.324-27.974 61.71l-26.926-1.9689q2.9144-22.382 5.8938-34.848 2.8015-12.763 12.674-38.658 0.01955-0.78745-0.3095-1.2475-0.6954-0.6924-1.3668-0.6382l-7.6335 2.8735q-8.0059 11.759-12.97 27.467-6.6046 18.848-9.1254 44.111-5.6887-1.0725-5.6467 0.8992-3.658 21.02-3.8265 35-0.1762 9.6868 1.8044 21.082 2.1828 12.342 7.331 30.184l2.0944 15.97q-3.4817 5.2251-3.5523 8.3047-0.5134 3.0012 4.4342 9.5215-1.0934 57.265 2.6352 82.471 2.0556 20.56 10.469 87.203l125.66-0.1301q-2.0771-76.36-4.6524-103.06 0.43326-6.1057-13.342-89.746-0.0026-6.8895 0.4312-10.851 0.88993-5.9219 1.8058-5.3387l-0.21016-2.0981q-11.916 11.223-45.13 9.8237l-18.938-83.715-1.0756-1.1067-6.4096-0.4675q14.708-41.631 26.271-59.736 9.0952-14.891 30.709-24.748 0.62993-1.1432-0.47367-2.1596l-8.0727-3.7822zm-59.417 89.621h0.0013l0.0012 2e-4 -0.0012 3e-4 -0.0013 2e-4v-7e-4m-43.169 0.0554 1.6112 0.1172 1.6112 0.1174-0.0398 0.4998q-1.6119-0.1384-3.2238-0.2766l0.0365-0.4578q0.0069 2e-3 0.0046 0m3.8678 0.2817 5.6051 0.4082 3.232 0.2354-0.13654 1.0513-0.06024 0.2036q-0.13452 0.3906-0.37966 0.6482-0.2452 0.2578-0.6009 0.3828-0.44235 0.0854-0.873 0.0303l-0.27876-0.0657-0.245-0.1089-0.21124-0.1526q-0.19434-0.1741-0.3213-0.4346-0.10564-0.0761-0.2292-0.9768 0.0861-0.6779 0.1037-0.8125l-5.605-0.4087m47.184 3.4363 0.60776 0.0442v1e-3q0.4829 0.0347 0.9659 0.0696l2e-4 0.0019-0.00105-1e-3 -0.09565 0.0386-0.0937 0.0337-0.0919 0.0295q-0.09094 0.0269-0.1779 0.0452-0.08723 0.0178-0.1704 0.0271l-0.0823 0.0066-0.0828 0.0025-0.09927-4e-3 -0.09607-0.0112-0.09301-0.0185-0.09005-0.0259-0.0869-0.033q-0.08544-0.0366-0.1647-0.0881l-0.07767-0.0549-0.07473-0.0623q0.0063 0.0022 0.00424-1e-3m-11.452-0.834 1.7708 0.1289 1.3435 0.0987q-0.1295 1.0102-0.25445 2.5547l-3.0979-0.4922q0.12175-1.3941 0.23805-2.2901m52.077 86.135h0.02106l0.02106 1e-3 -0.03256-1e-3h-0.0054l-0.0109 1e-3 0.00674-1e-3"/> </g> <g fill="#ffc596"> <path d="m689.72 1037.2-10.687 0.431q-1.7775 0.0571-2.0321 0.4914l-0.5874 6.3076q0.0817 1.3228 1.6825 2.8496-3.2223 1.1787-3.1378 5.3421 0.06945 2.6386 2.5909 3.3254-1.9968 0.9485-2.2056 5.187 0.00397 2.1961 3.0972 3.3138-1.3573 3.9431-0.10184 4.937 0.7149 1.4484 11.323 1.7561 16.12 10.545 19.67 11.491 3.2867 1.2573 5.4369-0.6121 33.535 33.395 49.767 43.826 22.995 15.32 37.934 15.544 17.141 0.0527 15.744-23.15-0.5338-10.29-4.726-19.722-3.8652-8.9493-15.025-25.419l-42.924 4.8779q-23.099-13.419-35.849-19.024-0.91235-0.6001-1.8204-1.7666-3.5986-6.3667-5.4298-8.0153-10.478-10.061-10.746-9.6719-3.3611-2.4053-11.968-2.2989"/> <path d="m678.49 918.19q-12.242-0.0492-16.331 5.5931-3.9433 4.6505-4.4311 18.604-3.0922-0.9518-3.1118 6.3169-0.10384 4.5305 0.37034 8.0146 0.47976 3.3788 2.0243 2.5416-0.22226 8.6993 1.1653 12.986 1.2672 4.6848 7.3842 12.452 2.137 6.6197 2.8178 10.199 1.7922 7.4342-0.65204 19.092l7.5801 6.6388q17.774-5.8812 25.526-10.494 7.687-4.2724 18.267-14.776-5.58-3.213-6.3871-8.0874-1.1599-4.5994 0.32084-19.286 4.5189-1.4316 6.7361-5.6359 3.9808-7.567 4.5882-13.95 0.3026-4.4334-5.0274-3.6489 0.845-7.2771-0.7415-10.604-1.5518-3.873-6.596-7.2194-12.919-7.893-33.461-8.7382"/> </g> <g fill="#171f5c"> <path d="m671.13 1083.4q-0.80456 0.0918-2.1606 0.8123-1.2593 0.6724-1.7528 1.2695-0.5004 0.6226-1.1323 2.3618-0.49165 1.3689-0.47194 2.1011 0.05194 1.2498 0.40864 2.0633 0.3196 0.6906 1.2165 1.2739 0.44005 0.3142 1.2021 0.3882l3.2507 0.125-0.24387 3.5879q2.3018-1.8687 4.0752-4.5723 0.62683-0.9624 1.2013-2.5449 0.32941-0.888 0.29864-1.8294-0.0498-1.3066-0.3582-2.1172-0.1688-0.5183-0.9449-1.1787-2.0806-1.8027-4.5731-1.7422"/> <path d="m680.03 1084.4q-1.2219-0.3257-2.4474 0.8269-1.0877 1.2408-1.1873 3.1741 0.0028 0.7283 1.1086 1.8503 1.5899 1.4044 3.0308 2.0032l0.30584 4.6053q1.911-1.2483 2.0173-1.3948 0.62846-0.5178 1.0274-1.1389 0.4136-0.6573 0.741-1.7061l0.3923-1.4157q0.0968-0.5171 0.0746-0.9981-0.11325-1.418-1.7121-3.2627-1.8035-2.0464-3.3444-2.5417"/> <path d="m641.99 1081.8q-2.4954-0.5706-4.2432-0.4639-3.8832 0.2107-5.7884 0.8269-1.306 0.2544-2.6976 1.499-0.35919 0.3411-0.51565 0.679-0.3539 0.7957-0.3593 1.238-0.08513 0.4007 0.64595 0.5952l1.486 0.3689q1.7837 0.2937 2.1649 0.3999 5.7024 1.4544 5.8561 1.4461 2.8057 0.6101 3.0263 0.5737 1.7237 0.1309 2.2246-0.0556l-1.7231 2.6223q1.2295-0.0215 1.8723-0.1719 1.9672-0.4153 2.172-0.6743 0.8482-0.6665 1.2164-1.2713 0.184-0.1784 0.16776-1.4504-0.00732-0.4187-0.33656-0.9727-1.5602-2.507-1.7906-2.6276-0.43244-0.5384-2.2124-1.9449-0.5618-0.4292-1.1585-0.6142"/> </g> <g fill="#fa5422" fill-opacity=".066667"> <path d="m712.84 968.67q-2.9772 9.5917-6.7871 13.711-3.8601 4.5402-11.637 7.3708-17.863 6.3018-28.63-4.273l22.812 30.776 14.401-7.0025 9.8458-40.578"/> </g> <g fill="#f51"> <path d="m606.41 1259.4q-3.2735 0.0647-5.198 6.9519-2.0926 7.2806-3.4358 23.096l6.0212 2.1914q3.2533-8.9563 4.7002-14.112 1.533-5.4282 1.8149-8.9788 0.3264-3.8222-0.7458-6.3359-1.1613-2.6384-3.1318-2.8113"/> </g> <g> <path d="m740.56 982.27q21.826-2.9425 39.656 13.119 17.778 17.021 22.697 46.521 4.8333 32.564-8.6934 63.263-15.604 33.181-43.382 42.199-29.247 8.5222-51.549-16.286-20.273-24.113-19.284-62.904 1.6175-34.215 20.394-59.859 17.203-22.3 40.003-26.03m0.0464-1.8649q-23.54 3.7445-41.311 26.68-19.21 25.951-21.12 61.376-1.2918 39.565 19.551 64.935 22.561 25.718 53.138 17.149 28.879-9.2808 44.992-43.788 13.775-31.25 8.834-64.989-5.0679-30.335-23.371-47.862-18.013-16.363-40.619-13.513"/> <path d="m742.45 978.11q25.09-3.3235 44.238 17.961 18.153 21.485 19.364 56.402 0.44079 33.682-17.312 61.84-17.162 25.865-43.027 30.48-24.984 3.8926-44.491-17.818-18.568-22.062-19.339-56.332-0.44186-34.527 17.205-61.856 17.699-26.254 43.02-30.623m0.23006-1.8955q-26.146 4.2998-44.503 31.237-17.867 27.081-17.995 62.986 0.37189 35.265 19.631 58.782 19.535 22.183 44.807 18.85 26.746-4.0478 44.797-30.331 18.649-28.368 18.644-63.71-0.83044-36.063-19.373-58.646-19.444-22.392-45.781-19.198"/> <path d="m742.45 980q25.322-3.283 44.377 18.126 18.069 21.621 19.224 56.186 0.40005 33.904-17.303 61.879-17.305 25.965-42.994 30.484-25.224 3.8653-44.616-17.911-18.482-22.098-19.251-56.083-0.45894-34.641 17.138-61.906 17.735-26.318 42.931-30.695m0.3835-1.9221q-26.355 4.4088-44.597 31.379-17.793 27.013-17.899 63.013 0.38304 34.968 19.534 58.497 19.544 22.238 44.673 18.996 26.903-3.99 44.967-30.276 18.606-28.122 18.703-63.654-0.83081-36.222-19.314-58.715-19.484-22.422-45.628-19.295"/> <path d="m744.72 976.98q25.09-3.3235 44.238 17.961 18.153 21.485 19.364 56.402 0.44064 33.682-17.312 61.841-17.162 25.865-43.027 30.48-24.984 3.8928-44.491-17.818-18.568-22.062-19.338-56.332-0.442-34.527 17.205-61.856 17.699-26.253 43.021-30.623m0.22998-1.8955q-26.146 4.2998-44.503 31.237-17.867 27.081-17.995 62.986 0.37189 35.265 19.631 58.782 19.535 22.183 44.807 18.85 26.746-4.0481 44.797-30.331 18.649-28.367 18.644-63.71-0.83057-36.063-19.374-58.646-19.444-22.392-45.781-19.198"/> <path d="m746.61 978.5q25.309-3.279 44.351 18.096 18.074 21.604 19.247 56.136 0.4246 33.894-17.243 61.868-17.275 25.988-42.935 30.554-25.113 4.0415-44.811-17.984-18.446-22.309-19.168-55.745-0.5335-34.627 16.996-61.938 17.672-26.381 42.835-30.866m0.6162-1.9631q-26.342 4.409-44.573 31.344-17.794 26.986-17.923 62.959 0.35113 34.95 19.467 58.504 19.633 22.254 44.369 19.124 27.268-3.9721 45.232-30.168 18.636-28.04 18.808-63.553-0.74933-36.214-19.154-58.776-19.417-22.518-45.547-19.518"/> <path d="m749.63 978.5q25.31-3.2771 44.347 18.092 18.065 21.592 19.249 56.088 0.4449 33.859-17.191 61.842-17.243 26.007-42.9 30.618-25.102 4.0932-44.822-17.887-18.477-22.448-19.228-55.302-0.60157-35.12 16.877-62.296 17.616-26.429 42.773-31.002m0.78485-1.9931q-26.342 4.4116-44.566 31.333-17.785 26.966-17.93 62.902 0.32343 34.914 19.405 58.496 19.734 22.279 44.095 19.242 27.65-3.9795 45.501-30.112 18.65-27.985 18.874-63.462-0.682-36.178-19.026-58.809-19.361-22.598-45.501-19.693"/> <path d="m746.99 977.36q25.311-3.2754 44.344 18.088 18.059 21.582 19.251 56.05 0.46104 33.832-17.151 61.822-17.218 26.022-42.872 30.667-25.099 4.1318-44.833-17.814-18.5-22.591-19.271-54.884-0.6606-35.235 16.446-62.119 17.637-26.935 43.061-31.636m0.91556-2.0171q-26.342 4.4138-44.56 31.324-17.778 26.95-17.935 62.858 0.3015 34.886 19.357 58.489 19.842 22.295 43.826 19.34 27.757-3.9543 45.415-29.565 18.993-28.066 19.276-63.899-0.62944-36.149-18.927-58.834-19.316-22.66-45.464-19.83"/> <path d="m750 984.93q25.311-3.2755 44.344 18.089 18.059 21.582 19.25 56.05 0.46085 33.832-17.151 61.822-17.218 26.022-42.872 30.667-25.099 4.1316-44.833-17.814-18.5-22.59-19.271-54.884-0.66065-35.235 16.446-62.119 17.637-26.935 43.061-31.636m0.9155-2.0172q-26.342 4.4138-44.56 31.324-17.778 26.95-17.935 62.858 0.3017 34.886 19.357 58.489 19.842 22.295 43.826 19.34 27.757-3.9543 45.415-29.565 18.993-28.066 19.276-63.899-0.6294-36.148-18.927-58.834-19.316-22.661-45.464-19.83"/> <path d="m751.9 981.52q25.312-3.2741 44.341 18.086 18.053 21.575 19.252 56.02 0.4739 33.81-17.119 61.806-17.197 26.034-42.85 30.707-25.097 4.1634-44.842-17.754-18.52-22.741-19.304-54.479-0.795-35.216 16.204-62.211 17.845-27.349 43.185-31.979m1.021-2.0366q-26.342 4.4156-44.555 31.317-17.773 26.937-17.94 62.822 0.28417 34.863 19.318 58.484 19.955 22.306 43.56 19.425 27.771-3.8084 45.505-29.292 19.259-28.4 19.49-64.091-0.58725-36.125-18.847-58.855-19.28-22.711-45.434-19.94"/> </g> <g fill="#ffc596"> <path d="m800.17 1076-28.892 53.631 16.147 8.3559q6.9281-6.0603 10.114-8.6687l8.9576-7.0137q2.99-2.8188 5.435-7.2194 4.5173-8.4471 2.0175-16.861-2.5841-8.7077-13.734-22.169"/> <path d="m676.72 1068.1q0.3775 1.5432 4.0972 2.5039 3.2532 0.9358 13.203 2.1878 6.0299-14.196 7.6954-20.36 2.0273-7.1826 1.0191-10.623-1.0183-3.6683-5.9385-4.607-4.073-0.9358-15.26 0.4387l-3.5958 26.781q-1.6087 2.4973-1.2322 3.6357"/> </g> <g fill="#7d8b96"> <path d="m557.51 827.29-322.44 1.3716q-14.255-0.24624-19.364 17.034l0.41049 138.64 361.58-1.537-0.76756-138.63q-5.227-17.19-19.424-16.876z"/> </g> <g fill="#929fa8"> <path d="m225.9 935.77 341.79-1.4527q0.0361 8.4718 0.0721 16.944l-341.79 1.4543q-0.03598-8.4727-0.07199-16.945"/> </g> <g fill="#072f4b"> <path d="m235.65 874.6 321.9-1.3681 0.0508 11.944q-160.95 0.6849-321.9 1.3694-0.02539-5.9729-0.05078-11.946"/> </g> <g fill="#929fa8"> <path d="m500.24 838.22 32.167-0.03272 32.167-0.03254q0.0101 9.9235 0.0202 19.847-32.168 0.033-64.335 0.0658-0.0101-9.9237-0.0202-19.848"/> </g> <g fill="#36ba8b"> <path d="m268.57 849.25-0.1134 0.8953q-0.81012 2.7058-4.7525 4.3318-3.9697 1.6247-9.3516 1.3238-5.1365-0.42283-8.218-2.497-3.079-2.0886-2.5003-4.9236 0.81012-2.706 4.7525-4.3319 3.9697-1.6247 9.3516-1.3238 5.1365 0.42279 8.218 2.497 0.98733 0.6705 1.6269 1.4616l0.5377 0.81346q0.44326 0.83987 0.44915 1.7533"/> </g> <g fill="#072f4b"> <path d="m236.67 894.66 321.9-1.368 0.05086 11.944-321.9 1.3693-0.05078-11.946"/> <path d="m236.71 914.07 321.9-1.3679q0.0255 5.9721 0.0508 11.944-160.95 0.68481-321.9 1.3694-0.02539-5.9729-0.05081-11.946"/> </g> </g> </svg>